# xmcd
#
# Track frame offsets: 
#        150
#        16120
#        37476
#        52130
#        68353
#        96431
#        115878
#        130366
#        141252
#        163638
#        179220
#        202024
#
# Disc length: 3330 seconds
#
# Revision: 0
# Processed by: cddbd v1.5.2PL0 Copyright (c) Steve Scherf et al.
# Submitted via: ExactAudioCopy v0.95b4
#
DISCID=ba0d000c
DTITLE=The Schramms - 2000 Weiss Beers From Home
DYEAR=2000
DGENRE=Folk
TTITLE0=Mailbox
TTITLE1=A Womans Name
TTITLE2=Her Darkness
TTITLE3=Yesterday Falls Away
TTITLE4=Tell Me Again And Again
TTITLE5=The Way Some People Die
TTITLE6=Little American Hymn
TTITLE7=I Know It´s Mine
TTITLE8=Sister Rose
TTITLE9=Walk To Delphi
TTITLE10=In The Mirror
TTITLE11=Side Of The Road
EXTD=
EXTT0=
EXTT1=
EXTT2=
EXTT3=
EXTT4=
EXTT5=
EXTT6=
EXTT7=
EXTT8=
EXTT9=
EXTT10=
EXTT11=
PLAYORDER=
